<?xml version="1.0" standalone="no"?>
<!DOCTYPE svg PUBLIC "-//W3C//DTD SVG 20010904//EN"
 "http://www.w3.org/TR/2001/REC-SVG-20010904/DTD/svg10.dtd">
<svg version="1.0" xmlns="http://www.w3.org/2000/svg"
 width="700.000000pt" height="700.000000pt" viewBox="0 0 700.000000 700.000000"
 preserveAspectRatio="xMidYMid meet">
<metadata>
Created by potrace 1.11, written by Peter Selinger 2001-2013
</metadata>
<g transform="translate(0.000000,700.000000) scale(0.100000,-0.100000)"
fill="#000000" stroke="none">
<path d="M6357 6971 c-53 -27 -149 -103 -543 -431 -183 -152 -212 -176 -339
-280 -55 -45 -114 -94 -131 -108 -17 -15 -50 -43 -74 -62 -24 -19 -62 -51 -85
-70 -22 -19 -86 -71 -140 -115 -55 -44 -104 -85 -110 -91 -5 -6 -46 -40 -90
-75 -44 -35 -82 -66 -85 -70 -3 -3 -239 -198 -525 -434 -508 -420 -714 -590
-805 -665 -71 -59 -489 -405 -775 -640 -143 -118 -262 -217 -265 -220 -3 -3
-27 -23 -55 -45 -27 -21 -52 -42 -55 -45 -3 -3 -27 -24 -55 -45 -27 -22 -52
-43 -55 -46 -3 -3 -95 -79 -205 -169 -110 -91 -202 -167 -205 -170 -3 -3 -56
-47 -118 -98 -62 -51 -120 -99 -130 -107 -9 -8 -64 -53 -122 -101 -58 -47
-136 -113 -175 -145 -38 -32 -169 -140 -290 -239 -121 -100 -229 -189 -240
-198 -11 -9 -45 -37 -75 -62 -30 -25 -57 -47 -60 -50 -3 -3 -57 -48 -120 -100
-177 -145 -219 -184 -266 -245 -64 -82 -92 -163 -80 -229 21 -112 215 -180
401 -141 44 10 89 19 100 20 11 2 88 17 170 34 83 17 161 32 175 35 14 3 135
27 270 55 135 27 256 52 270 55 14 2 59 11 100 20 41 8 91 18 110 21 19 3 42
8 50 10 8 2 26 6 40 9 14 2 106 21 205 41 99 21 191 39 205 41 67 10 161 33
192 48 30 14 119 103 308 306 39 42 281 298 406 429 50 53 122 130 161 171 39
41 95 100 124 132 30 31 108 113 174 184 66 70 138 146 160 169 74 78 457 483
510 540 20 22 103 110 183 195 163 171 257 271 316 334 21 22 75 80 120 127
44 47 144 152 221 234 239 255 348 362 393 384 52 26 119 32 132 11 22 -34 18
-43 -107 -280 -33 -63 -96 -182 -138 -265 -43 -82 -100 -193 -128 -245 -27
-52 -81 -156 -119 -230 -39 -74 -92 -175 -118 -225 -26 -49 -82 -157 -125
-240 -43 -82 -97 -186 -120 -230 -23 -44 -73 -138 -110 -210 -37 -71 -95 -182
-128 -245 -33 -63 -86 -166 -118 -227 -379 -726 -354 -663 -354 -878 0 -139
11 -192 63 -310 35 -80 111 -183 178 -243 44 -40 420 -260 729 -427 22 -12
164 -92 315 -177 533 -301 689 -388 694 -388 3 0 30 -16 60 -35 30 -19 57 -35
59 -35 2 0 68 -35 146 -79 122 -68 151 -80 209 -87 202 -23 333 30 402 164 42
81 47 138 44 498 -1 186 -5 784 -9 1329 -3 545 -8 1247 -10 1560 -2 314 -7
964 -10 1445 -9 1363 -12 1597 -18 1607 -3 5 -9 25 -12 44 -17 102 -83 223
-150 273 -59 45 -97 56 -197 56 -83 0 -99 -3 -151 -29z"/>
</g>
</svg>
