<svg width="389" height="389" xmlns="http://www.w3.org/2000/svg"><g fill="#000" fill-rule="evenodd" opacity=".2"><g transform="rotate(-29 553.4 -2.7)"><circle cx="135.3" cy="135.3" r="4.7"/><circle cx="116.7" cy="135.3" r="4.7"/><circle cx="98" cy="135.3" r="4.7"/><circle cx="79.3" cy="135.3" r="4.7"/><circle cx="60.7" cy="135.3" r="4.7"/><circle cx="42" cy="135.3" r="4.7"/><circle cx="23.3" cy="135.3" r="4.7"/><circle cx="4.7" cy="135.3" r="4.7"/><circle cx="135.3" cy="116.7" r="4.7"/><circle cx="116.7" cy="116.7" r="4.7"/><circle cx="98" cy="116.7" r="4.7"/><circle cx="79.3" cy="116.7" r="4.7"/><circle cx="60.7" cy="116.7" r="4.7"/><circle cx="42" cy="116.7" r="4.7"/><circle cx="23.3" cy="116.7" r="4.7"/><circle cx="4.7" cy="116.7" r="4.7"/><circle cx="135.3" cy="98" r="4.7"/><circle cx="116.7" cy="98" r="4.7"/><circle cx="98" cy="98" r="4.7"/><circle cx="79.3" cy="98" r="4.7"/><circle cx="60.7" cy="98" r="4.7"/><circle cx="42" cy="98" r="4.7"/><circle cx="23.3" cy="98" r="4.7"/><circle cx="4.7" cy="98" r="4.7"/><circle cx="135.3" cy="79.3" r="4.7"/><circle cx="116.7" cy="79.3" r="4.7"/><circle cx="98" cy="79.3" r="4.7"/><circle cx="79.3" cy="79.3" r="4.7"/><circle cx="60.7" cy="79.3" r="4.7"/><circle cx="42" cy="79.3" r="4.7"/><circle cx="23.3" cy="79.3" r="4.7"/><circle cx="4.7" cy="79.3" r="4.7"/><circle cx="135.3" cy="60.7" r="4.7"/><circle cx="116.7" cy="60.7" r="4.7"/><circle cx="98" cy="60.7" r="4.7"/><circle cx="79.3" cy="60.7" r="4.7"/><circle cx="60.7" cy="60.7" r="4.7"/><circle cx="42" cy="60.7" r="4.7"/><circle cx="23.3" cy="60.7" r="4.7"/><circle cx="4.7" cy="60.7" r="4.7"/><circle cx="135.3" cy="42" r="4.7"/><circle cx="116.7" cy="42" r="4.7"/><circle cx="98" cy="42" r="4.7"/><circle cx="79.3" cy="42" r="4.7"/><circle cx="60.7" cy="42" r="4.7"/><circle cx="42" cy="42" r="4.7"/><circle cx="23.3" cy="42" r="4.7"/><circle cx="4.7" cy="42" r="4.7"/><circle cx="135.3" cy="23.3" r="4.7"/><circle cx="116.7" cy="23.3" r="4.7"/><circle cx="98" cy="23.3" r="4.7"/><circle cx="79.3" cy="23.3" r="4.7"/><circle cx="60.7" cy="23.3" r="4.7"/><circle cx="42" cy="23.3" r="4.7"/><circle cx="23.3" cy="23.3" r="4.7"/><circle cx="4.7" cy="23.3" r="4.7"/><circle cx="135.3" cy="4.7" r="4.7"/><circle cx="116.7" cy="4.7" r="4.7"/><circle cx="98" cy="4.7" r="4.7"/><circle cx="79.3" cy="4.7" r="4.7"/><circle cx="60.7" cy="4.7" r="4.7"/><circle cx="42" cy="4.7" r="4.7"/><circle cx="23.3" cy="4.7" r="4.7"/><circle cx="4.7" cy="4.7" r="4.7"/></g><g transform="rotate(-29 479.5 -288.6)"><circle cx="135.3" cy="135.3" r="4.7"/><circle cx="116.7" cy="135.3" r="4.7"/><circle cx="98" cy="135.3" r="4.7"/><circle cx="79.3" cy="135.3" r="4.7"/><circle cx="60.7" cy="135.3" r="4.7"/><circle cx="42" cy="135.3" r="4.7"/><circle cx="23.3" cy="135.3" r="4.7"/><circle cx="4.7" cy="135.3" r="4.7"/><circle cx="135.3" cy="116.7" r="4.7"/><circle cx="116.7" cy="116.7" r="4.7"/><circle cx="98" cy="116.7" r="4.7"/><circle cx="79.3" cy="116.7" r="4.7"/><circle cx="60.7" cy="116.7" r="4.7"/><circle cx="42" cy="116.7" r="4.7"/><circle cx="23.3" cy="116.7" r="4.7"/><circle cx="4.7" cy="116.7" r="4.7"/><circle cx="135.3" cy="98" r="4.7"/><circle cx="116.7" cy="98" r="4.7"/><circle cx="98" cy="98" r="4.7"/><circle cx="79.3" cy="98" r="4.7"/><circle cx="60.7" cy="98" r="4.7"/><circle cx="42" cy="98" r="4.7"/><circle cx="23.3" cy="98" r="4.7"/><circle cx="4.7" cy="98" r="4.7"/><circle cx="135.3" cy="79.3" r="4.7"/><circle cx="116.7" cy="79.3" r="4.7"/><circle cx="98" cy="79.3" r="4.7"/><circle cx="79.3" cy="79.3" r="4.7"/><circle cx="60.7" cy="79.3" r="4.7"/><circle cx="42" cy="79.3" r="4.7"/><circle cx="23.3" cy="79.3" r="4.7"/><circle cx="4.7" cy="79.3" r="4.7"/><circle cx="135.3" cy="60.7" r="4.7"/><circle cx="116.7" cy="60.7" r="4.7"/><circle cx="98" cy="60.7" r="4.7"/><circle cx="79.3" cy="60.7" r="4.7"/><circle cx="60.7" cy="60.7" r="4.7"/><circle cx="42" cy="60.7" r="4.7"/><circle cx="23.3" cy="60.7" r="4.7"/><circle cx="4.7" cy="60.7" r="4.7"/><circle cx="135.3" cy="42" r="4.7"/><circle cx="116.7" cy="42" r="4.7"/><circle cx="98" cy="42" r="4.7"/><circle cx="79.3" cy="42" r="4.7"/><circle cx="60.7" cy="42" r="4.7"/><circle cx="42" cy="42" r="4.7"/><circle cx="23.3" cy="42" r="4.7"/><circle cx="4.7" cy="42" r="4.7"/><circle cx="135.3" cy="23.3" r="4.7"/><circle cx="116.7" cy="23.3" r="4.7"/><circle cx="98" cy="23.3" r="4.7"/><circle cx="79.3" cy="23.3" r="4.7"/><circle cx="60.7" cy="23.3" r="4.7"/><circle cx="42" cy="23.3" r="4.7"/><circle cx="23.3" cy="23.3" r="4.7"/><circle cx="4.7" cy="23.3" r="4.7"/><circle cx="135.3" cy="4.7" r="4.7"/><circle cx="116.7" cy="4.7" r="4.7"/><circle cx="98" cy="4.7" r="4.7"/><circle cx="79.3" cy="4.7" r="4.7"/><circle cx="60.7" cy="4.7" r="4.7"/><circle cx="42" cy="4.7" r="4.7"/><circle cx="23.3" cy="4.7" r="4.7"/><circle cx="4.7" cy="4.7" r="4.7"/></g><g transform="rotate(-29 267.5 71.2)"><circle cx="135.3" cy="135.3" r="4.7"/><circle cx="116.7" cy="135.3" r="4.7"/><circle cx="98" cy="135.3" r="4.7"/><circle cx="79.3" cy="135.3" r="4.7"/><circle cx="60.7" cy="135.3" r="4.7"/><circle cx="42" cy="135.3" r="4.7"/><circle cx="23.3" cy="135.3" r="4.7"/><circle cx="4.7" cy="135.3" r="4.7"/><circle cx="135.3" cy="116.7" r="4.7"/><circle cx="116.7" cy="116.7" r="4.7"/><circle cx="98" cy="116.7" r="4.7"/><circle cx="79.3" cy="116.7" r="4.7"/><circle cx="60.7" cy="116.7" r="4.7"/><circle cx="42" cy="116.7" r="4.7"/><circle cx="23.3" cy="116.7" r="4.7"/><circle cx="4.7" cy="116.7" r="4.7"/><circle cx="135.3" cy="98" r="4.7"/><circle cx="116.7" cy="98" r="4.7"/><circle cx="98" cy="98" r="4.7"/><circle cx="79.3" cy="98" r="4.7"/><circle cx="60.7" cy="98" r="4.7"/><circle cx="42" cy="98" r="4.7"/><circle cx="23.3" cy="98" r="4.7"/><circle cx="4.7" cy="98" r="4.7"/><circle cx="135.3" cy="79.3" r="4.7"/><circle cx="116.7" cy="79.3" r="4.7"/><circle cx="98" cy="79.3" r="4.7"/><circle cx="79.3" cy="79.3" r="4.7"/><circle cx="60.7" cy="79.3" r="4.7"/><circle cx="42" cy="79.3" r="4.7"/><circle cx="23.3" cy="79.3" r="4.7"/><circle cx="4.7" cy="79.3" r="4.7"/><circle cx="135.3" cy="60.7" r="4.7"/><circle cx="116.7" cy="60.7" r="4.7"/><circle cx="98" cy="60.7" r="4.7"/><circle cx="79.3" cy="60.7" r="4.7"/><circle cx="60.7" cy="60.7" r="4.7"/><circle cx="42" cy="60.7" r="4.7"/><circle cx="23.3" cy="60.7" r="4.7"/><circle cx="4.7" cy="60.7" r="4.7"/><circle cx="135.3" cy="42" r="4.7"/><circle cx="116.7" cy="42" r="4.7"/><circle cx="98" cy="42" r="4.7"/><circle cx="79.3" cy="42" r="4.7"/><circle cx="60.7" cy="42" r="4.7"/><circle cx="42" cy="42" r="4.7"/><circle cx="23.3" cy="42" r="4.7"/><circle cx="4.7" cy="42" r="4.7"/><circle cx="135.3" cy="23.3" r="4.7"/><circle cx="116.7" cy="23.3" r="4.7"/><circle cx="98" cy="23.3" r="4.7"/><circle cx="79.3" cy="23.3" r="4.7"/><circle cx="60.7" cy="23.3" r="4.7"/><circle cx="42" cy="23.3" r="4.7"/><circle cx="23.3" cy="23.3" r="4.7"/><circle cx="4.7" cy="23.3" r="4.7"/><circle cx="135.3" cy="4.7" r="4.7"/><circle cx="116.7" cy="4.7" r="4.7"/><circle cx="98" cy="4.7" r="4.7"/><circle cx="79.3" cy="4.7" r="4.7"/><circle cx="60.7" cy="4.7" r="4.7"/><circle cx="42" cy="4.7" r="4.7"/><circle cx="23.3" cy="4.7" r="4.7"/><circle cx="4.7" cy="4.7" r="4.7"/></g><g transform="rotate(-29 193.6 -214.7)"><circle cx="135.3" cy="135.3" r="4.7"/><circle cx="116.7" cy="135.3" r="4.7"/><circle cx="98" cy="135.3" r="4.7"/><circle cx="79.3" cy="135.3" r="4.7"/><circle cx="60.7" cy="135.3" r="4.7"/><circle cx="42" cy="135.3" r="4.7"/><circle cx="23.3" cy="135.3" r="4.7"/><circle cx="4.7" cy="135.3" r="4.7"/><circle cx="135.3" cy="116.7" r="4.7"/><circle cx="116.7" cy="116.7" r="4.7"/><circle cx="98" cy="116.7" r="4.7"/><circle cx="79.3" cy="116.7" r="4.7"/><circle cx="60.7" cy="116.7" r="4.7"/><circle cx="42" cy="116.7" r="4.7"/><circle cx="23.3" cy="116.7" r="4.7"/><circle cx="4.7" cy="116.7" r="4.7"/><circle cx="135.3" cy="98" r="4.7"/><circle cx="116.7" cy="98" r="4.7"/><circle cx="98" cy="98" r="4.7"/><circle cx="79.3" cy="98" r="4.7"/><circle cx="60.7" cy="98" r="4.7"/><circle cx="42" cy="98" r="4.7"/><circle cx="23.3" cy="98" r="4.7"/><circle cx="4.7" cy="98" r="4.7"/><circle cx="135.3" cy="79.3" r="4.7"/><circle cx="116.7" cy="79.3" r="4.7"/><circle cx="98" cy="79.3" r="4.7"/><circle cx="79.3" cy="79.3" r="4.7"/><circle cx="60.7" cy="79.3" r="4.7"/><circle cx="42" cy="79.3" r="4.7"/><circle cx="23.3" cy="79.3" r="4.7"/><circle cx="4.7" cy="79.3" r="4.7"/><circle cx="135.3" cy="60.7" r="4.7"/><circle cx="116.7" cy="60.7" r="4.7"/><circle cx="98" cy="60.7" r="4.7"/><circle cx="79.3" cy="60.7" r="4.7"/><circle cx="60.7" cy="60.7" r="4.7"/><circle cx="42" cy="60.7" r="4.7"/><circle cx="23.3" cy="60.7" r="4.7"/><circle cx="4.7" cy="60.7" r="4.7"/><circle cx="135.3" cy="42" r="4.7"/><circle cx="116.7" cy="42" r="4.7"/><circle cx="98" cy="42" r="4.7"/><circle cx="79.3" cy="42" r="4.7"/><circle cx="60.7" cy="42" r="4.7"/><circle cx="42" cy="42" r="4.7"/><circle cx="23.3" cy="42" r="4.7"/><circle cx="4.7" cy="42" r="4.7"/><circle cx="135.3" cy="23.3" r="4.7"/><circle cx="116.7" cy="23.3" r="4.7"/><circle cx="98" cy="23.3" r="4.7"/><circle cx="79.3" cy="23.3" r="4.7"/><circle cx="60.7" cy="23.3" r="4.7"/><circle cx="42" cy="23.3" r="4.7"/><circle cx="23.3" cy="23.3" r="4.7"/><circle cx="4.7" cy="23.3" r="4.7"/><circle cx="135.3" cy="4.7" r="4.7"/><circle cx="116.7" cy="4.7" r="4.7"/><circle cx="98" cy="4.7" r="4.7"/><circle cx="79.3" cy="4.7" r="4.7"/><circle cx="60.7" cy="4.7" r="4.7"/><circle cx="42" cy="4.7" r="4.7"/><circle cx="23.3" cy="4.7" r="4.7"/><circle cx="4.7" cy="4.7" r="4.7"/></g></g></svg>