<svg width="40" height="29" xmlns="http://www.w3.org/2000/svg"><defs><linearGradient x1="0%" y1="45.7%" x2="84.6%" y2="79.3%" id="a"><stop stop-color="#F9C642" offset="0%"/><stop stop-color="#FFBFBF" offset="100%"/></linearGradient></defs><g fill-rule="nonzero" fill="none"><path d="M18.4 28.7c-1.3 0-1-.5-1.5-1.7L13 14.3 37.7 2" fill="#CE9274"/><path d="M18.5 28.7c1 0 1.5-.5 2-1l5.6-5.3-7.8-4.7" fill="#EAA597"/><path d="M18.2 15.5l17.3 10.4c1.8 1 3.1.5 3.6-1.7l.6-22.5a3 3 0 0 0-4-3L2 11c-2.6 1-2.6 2.6-.4 3.2l12.1-.8 19-10.6c1-.6 2-.3 1.2.4" fill="url(#a)" transform="translate(0 2)"/></g></svg>