<svg width="22" height="41" xmlns="http://www.w3.org/2000/svg"><path d="M15.4 13.3v.1c3.8 1.1 5.7 3.8 5.7 8 0 3.3-1.1 6-3.3 8a9.4 9.4 0 0 1-6.7 2.6c-1.4 0-2.8-.3-4-1.1v2.9c0 3-.4 5.2-1 6.6H0c.6-1.3.9-3.5.9-6.6v-17c0-3.4.3-6 1-8.1a13 13 0 0 1 3-5.2A8.7 8.7 0 0 1 11.5 1c2.3 0 4.1.6 5.6 1.9a6.1 6.1 0 0 1 2 4.8c0 2.5-1.2 4.3-3.7 5.6zM7 9.6v18.6a4 4 0 0 0 3.8 2.5c1.5 0 2.6-.8 3-2.3.5-1.3.7-3.4.7-6.5 0-2.6-.4-4.5-1.3-6.1-.5-1-1.1-1.6-1.6-1.6l-1.9.3c-1.2 0-1.8-.3-1.8-1.1s.7-1.2 2.2-1.2l2 .4c.2 0 .5-.5.7-1.4.2-.7.2-1.4.2-2.2 0-1.7-.1-3.2-.6-4.4-.5-1.5-1.2-2.3-2.2-2.3-1.3 0-2.2.6-2.6 2C7.2 5.3 7 7 7 9.6z" fill="#0E35C4" fill-rule="evenodd"/></svg>