<svg width="33" height="36" xmlns="http://www.w3.org/2000/svg"><g fill="#000" fill-rule="nonzero"><path d="M9 16.46a1.16 1.16 0 0 1 1.62 0L12 17.84a.59.59 0 0 0 .83 0 .56.56 0 0 0 0-.8l-1.38-1.36A2.33 2.33 0 0 0 9.8 15c-.62 0-1.2.23-1.64.65a.56.56 0 0 0 0 .8c.23.23.6.23.82.01zM20.86 15.67l-1.66 1.36c-.27.22-.27.58 0 .8.14.12.32.17.5.17s.36-.06.5-.17l1.66-1.36c.53-.44 1.4-.44 1.95 0 .27.21.72.21.99-.01.27-.23.27-.59 0-.8a3.26 3.26 0 0 0-3.94 0zM14.38 23.42l.56.29c.35.17.78.06.97-.27a.65.65 0 0 0-.28-.9l-.56-.3a2.24 2.24 0 0 0-1.62-.16c-.54.15-1 .49-1.27.95l-.17.3a.7.7 0 0 1-.42.3.74.74 0 0 1-.53-.05.74.74 0 0 0-.97.26.65.65 0 0 0 .28.91 2.23 2.23 0 0 0 2.9-.78l.16-.3a.7.7 0 0 1 .42-.3.74.74 0 0 1 .53.05zM21.94 23.58a.73.73 0 0 1-.95-.26l-.17-.29a2.2 2.2 0 0 0-2.9-.78l-.55.28a.65.65 0 0 0-.28.91c.19.33.62.44.97.27l.56-.3a.73.73 0 0 1 .95.27l.17.29a2.23 2.23 0 0 0 2.9.79.65.65 0 0 0 .27-.92.74.74 0 0 0-.97-.26z"/><path d="M12.95 20.57a.72.72 0 0 0-.15-.77l-2.5-2.6a.66.66 0 0 0-.96 0 .72.72 0 0 0 0 1l1.34 1.4h-2a.7.7 0 0 0-.68.7c0 .38.3.7.68.7h3.64c.28 0 .52-.17.63-.43zM24.32 19.6h-2l1.34-1.4a.72.72 0 0 0 0-1 .66.66 0 0 0-.96 0l-2.5 2.6c-.2.2-.25.5-.15.77.1.26.35.43.63.43h3.64a.7.7 0 0 0 .68-.7.7.7 0 0 0-.68-.7zM17.25 25h-.5A2.8 2.8 0 0 0 14 27.83v2.34A2.8 2.8 0 0 0 16.75 33h.5A2.8 2.8 0 0 0 20 30.17v-2.34A2.8 2.8 0 0 0 17.25 25zm-.5 1.45h.5c.58 0 1.07.38 1.26.9h-3.02c.19-.52.68-.9 1.26-.9zm.5 5.1h-.5c-.74 0-1.34-.62-1.34-1.38v-1.36h3.18v1.36c0 .76-.6 1.38-1.34 1.38z"/><path d="M32.1 17.05v-1.23C32.1 7.1 25.1 0 16.5 0S.9 7.1.9 15.82v1.23a3.96 3.96 0 0 0 2.36 6.43c.65 2.9 2.93 6.22 6.8 9.93a9.3 9.3 0 0 0 12.88 0c3.87-3.7 6.15-7.04 6.8-9.93a3.96 3.96 0 0 0 2.35-6.42zM3.05 21.8v.22c-1-.35-1.71-1.3-1.71-2.44 0-1.28.94-2.36 2.15-2.54-.29 1.56-.44 3.16-.44 4.76zM22.02 32.4a7.96 7.96 0 0 1-11.04 0c-4.3-4.11-6.57-7.78-6.57-10.62 0-4.13 1.06-8.22 3.06-11.82l.1-.18a2.15 2.15 0 0 1 1.9-1.12c.67 0 1.28.3 1.69.85l.02.03a6.64 6.64 0 0 0 5.32 2.72 6.63 6.63 0 0 0 5.32-2.72l.02-.03c.44-.58 1.11-.9 1.84-.84.73.05 1.38.46 1.74 1.1l.1.2c2.01 3.6 3.07 7.68 3.07 11.82 0 2.83-2.27 6.5-6.57 10.61zM26.7 9.3l-.1-.19a3.5 3.5 0 0 0-2.83-1.8 3.45 3.45 0 0 0-3 1.39l-.03.04a5.22 5.22 0 0 1-8.48 0l-.03-.04a3.44 3.44 0 0 0-3-1.39 3.5 3.5 0 0 0-2.83 1.8l-.1.19c-1.11 2-1.95 4.13-2.5 6.34-.54.01-1.07.14-1.54.36v-.18c0-7.97 6.39-14.45 14.24-14.45 7.85 0 14.24 6.48 14.24 14.45V16c-.47-.22-1-.35-1.55-.36a25.62 25.62 0 0 0-2.5-6.34zm3.24 12.72v-.22c0-1.6-.15-3.2-.44-4.76a2.57 2.57 0 0 1 2.15 2.54c0 1.13-.72 2.1-1.71 2.44z"/></g></svg>