<svg width="40" height="35" xmlns="http://www.w3.org/2000/svg"><defs><linearGradient x1="66%" y1="43.7%" x2="85.1%" y2="80.2%" id="a"><stop stop-color="#EFF7FC" offset="0%"/><stop stop-color="#FFF" offset="100%"/></linearGradient></defs><g fill-rule="nonzero" fill="none"><path d="M15.7 33c-1.2.1-1-.3-1.5-1.5l-4-11.4 26-17.4" fill="#C8DAEA"/><path d="M15.7 33c.9-.1 1.3-.6 1.8-1l4.6-5.1-6.3-3.4" fill="#A9C9DD"/><path d="M15.6 22.3l14.8 11c1.7 1 2.9.5 3.3-1.5l6-28.7c.6-2.5-1-3.6-2.5-2.9L1.9 14c-2.4 1-2.4 2.3-.5 3l9 2.8 21-13.4c1-.6 2-.3 1.2.4" fill="url(#a)" transform="rotate(-2.7 41 17.5)"/></g></svg>