<?xml version="1.0" ?><svg height="56.6934px" id="Layer_1" style="enable-background:new 0 0 56.6934 56.6934;" version="1.1" viewBox="0 0 56.6934 56.6934" width="56.6934px" xml:space="preserve" xmlns="http://www.w3.org/2000/svg" xmlns:xlink="http://www.w3.org/1999/xlink"><g><path fill="#fff" d="M19.6671,25.7867c-0.0075,1.7935,0,3.5869,0.0076,5.3803c3.0067,0.098,6.0208,0.0527,9.0275,0.098   c-1.3262,6.6689-10.3989,8.8315-15.199,4.4761C8.5674,31.9206,8.801,23.5412,13.9327,19.992   c3.5869-2.8635,8.6884-2.1552,12.2752,0.324c1.4092-1.3036,2.7278-2.6977,4.0013-4.1445   c-2.984-2.3812-6.6462-4.0767-10.5421-3.8958c-8.1307-0.2713-15.6059,6.8497-15.7415,14.9805   c-0.52,6.6462,3.8506,13.1644,10.0222,15.5155c6.1489,2.3661,14.031,0.7535,17.957-4.77c2.5922-3.4889,3.1498-7.98,2.8484-12.1999   C29.7194,25.7641,24.6933,25.7716,19.6671,25.7867z"/></g></svg>
