<svg width="44" height="44" xmlns="http://www.w3.org/2000/svg"><g fill="#FFEA00" fill-rule="nonzero"><path d="M42.3 40.8h-39v-39C3.2.7 2.5.1 1.6.1.8.2.2.9.2 1.7v40.6c0 .9.6 1.5 1.5 1.5h40.6c.8 0 1.5-.6 1.5-1.5s-.7-1.5-1.5-1.5z"/><path d="M18.2 34.8V12.6c0-.8-.7-1.5-1.6-1.5-.8 0-1.5.7-1.5 1.5v22.2c0 .9.7 1.6 1.5 1.6.9 0 1.6-.7 1.6-1.6zM10.7 34.8V12.6c0-.8-.7-1.5-1.5-1.5-.9 0-1.6.7-1.6 1.5v22.2c0 .9.7 1.6 1.6 1.6.8 0 1.5-.7 1.5-1.6zM33 34.8V12.6c0-.8-.6-1.5-1.5-1.5s-1.5.7-1.5 1.5v22.2c0 .9.6 1.6 1.5 1.6s1.6-.7 1.6-1.6zM40.5 34.8v-11c0-1-.7-1.6-1.5-1.6-.9 0-1.6.7-1.6 1.5v11.1c0 .9.7 1.6 1.6 1.6.8 0 1.5-.7 1.5-1.6zM25.6 34.8v-11c0-1-.7-1.6-1.5-1.6-.9 0-1.6.7-1.6 1.5v11.1c0 .9.7 1.6 1.6 1.6.8 0 1.5-.7 1.5-1.6z"/></g></svg>