<svg width="44" height="44" xmlns="http://www.w3.org/2000/svg"><g fill="#FFEA00" fill-rule="nonzero"><path d="M27.1 21.6c-1.4-1-3.1-1.5-4.8-2-.4 0-.8-.2-1.1-.3-2-.6-3.4-1.8-3.5-3.2-.2-1.1.5-2.2 1.8-2.9l.9-.3v2.5a1.7 1.7 0 0 0 3.3 0V13c1 .2 2 .6 2.8 1.1a1.7 1.7 0 1 0 1.7-2.9c-1.2-.7-2.8-1.4-4.5-1.7V8.3a1.7 1.7 0 0 0-3.3 0v1.1c-1 .2-1.8.4-2.6.9-2.4 1.3-3.8 3.7-3.5 6.2.3 2.8 2.5 5 6 6v8.1c-1.3-.3-2.5-.9-2.9-1.6a1.7 1.7 0 1 0-3 1.6c1 2 3.4 3 6 3.4v1.7a1.7 1.7 0 0 0 3.3 0v-1.9l1-.2a7.3 7.3 0 0 0 5-5.9c.4-2.5-.6-4.8-2.6-6.1zm-.7 5.6a4 4 0 0 1-2.7 3.2v-6.8l1.5.7c1.4 1 1.3 2.4 1.2 3z"/><path d="M22 44a22 22 0 1 1 0-44 22 22 0 0 1 0 44zm0-3.5a18.5 18.5 0 1 0 0-37 18.5 18.5 0 0 0 0 37z"/></g></svg>