<svg width="24" height="24" xmlns="http://www.w3.org/2000/svg"><path d="M23.7 7.8c-.5-1.3-1.4-3.1-3-4.7A13.3 13.3 0 0 0 16.3.3c-1.4-.6-3-.2-4 .8L8.5 4.8c-1.1 1-1.4 2.7-.8 4.1l.6 1.3-8 8a1 1 0 0 0-.3.7V23c0 .5.4 1 1 1h4c.6 0 1-.5 1-1v-1.7h1.7c.5 0 1-.4 1-1v-1.6h1.6a1 1 0 1 0 0-1.9H7.7a1 1 0 0 0-1 1v1.7H5.1a1 1 0 0 0-1 .9V22H2v-2.8l8.3-8.3c.3-.3.3-.8.1-1.2l-.9-1.7c-.3-.7-.1-1.5.4-2l3.7-3.7c.5-.5 1.3-.7 2-.4 1 .4 2.6 1.2 4 2.5 1.2 1.3 2 2.8 2.5 4 .2.6 0 1.4-.5 2L17.8 14c-.5.6-1.3.7-2 .4l-1.7-.8a1 1 0 0 0-1 1.6l2 1c1.3.6 3 .2 4-.8l3.8-3.7c1-1 1.3-2.7.8-4z" fill="#FFEA00" fill-rule="nonzero"/></svg>