<svg width="39" height="39" xmlns="http://www.w3.org/2000/svg"><defs><linearGradient x1="65.97%" y1="43.69%" x2="85.12%" y2="80.24%" id="a"><stop stop-color="#FFF" offset="0%"/><stop stop-color="#FFF" offset="100%"/></linearGradient></defs><path d="M25.79 31.97l6.67 6.89 2.34 2.41c1.8.98 3.08.47 3.53-1.64l9.4-32.25c.66-2.6-1-3.77-2.7-3L5.6 21.06c-2.55 1.02-2.54 2.43-.46 3.06l10.86 1a1 1 0 0 0 .59-.13l20.44-11.8c1.05-.63 2.01-.29 1.22.4L25.8 26.4a4 4 0 0 0 0 5.58z" transform="rotate(-16.64 26.77 37.24)" fill="url(#a)" fill-rule="nonzero"/></svg>