<svg width="491" height="451" xmlns="http://www.w3.org/2000/svg"><defs><linearGradient x1="65.97%" y1="43.69%" x2="85.12%" y2="80.24%" id="a"><stop stop-color="#EFF7FC" offset="0%"/><stop stop-color="#FFF" offset="100%"/></linearGradient><linearGradient x1="0%" y1="45.67%" x2="84.63%" y2="79.3%" id="b"><stop stop-color="#F9C642" offset="0%"/><stop stop-color="#FFBFBF" offset="100%"/></linearGradient><linearGradient x1="0%" y1="40.24%" x2="85.12%" y2="80.24%" id="c"><stop stop-color="#6A90FF" offset="0%"/><stop stop-color="#9EFFD8" offset="100%"/></linearGradient></defs><g fill-rule="nonzero" fill="none"><path d="M291.13 276.76c-10.07.48-8.54-3.4-12.47-12.82l-34.27-95.96 221.7-145.96" fill="#C8DAEA"/><path d="M291.08 275.7c7.78-.36 11.05-4.08 15.19-8.5l39.56-42.24-53.22-28.68" fill="#A9C9DD"/><path d="M132.68 187.14l125.52 92.57c14.32 7.89 24.66 3.8 28.22-13.27l51.1-240.34c5.23-20.94-8-30.43-21.7-24.22l-300 115.48c-20.48 8.2-20.37 19.6-3.74 24.68l76.99 23.99L267.3 53.78c8.42-5.1 16.14-2.36 9.8 3.26" fill="url(#a)" transform="rotate(-2.72 417.24 -3176.16)"/><g><path d="M81.82 374.75c-5.7 0-4.73-2.14-6.7-7.56l-16.75-55.07 107.69-53.26" fill="#CE9274"/><path d="M81.82 374.16c4.4 0 6.34-2 8.8-4.4L114.05 347l-33.25-20.62" fill="#EAA597"/><path d="M79.93 76.72l75.87 45.3c8.1 4.45 13.93 2.14 15.94-7.5l2.9-106.82a7 7 0 0 0-9.37-6.77L8.93 57.3c-11.56 4.63-11.5 11.07-2.1 13.94L60.3 67.8l83.19-46.14c4.75-2.88 9.11-1.33 5.53 1.84" fill="url(#b)" transform="translate(0 250)"/></g><g><path d="M295.3 450.4c-3.5.69-3.16-.75-5.02-3.85l-16.93-31.89 69.89-62.55" fill="#5FA2DD"/><path d="M295.23 450.04c2.7-.53 3.64-2 4.86-3.77l11.63-16.83-20.06-7.33" fill="#2C8793"/><path d="M52.82 74.32l54.12 34.73L129.2.78.44 56.4l36.99 10.43 62.9-39.78c2.98-1.8 5.7-.83 3.47 1.16" fill="url(#c)" transform="rotate(-11.09 1963.84 -981.87)"/></g></g></svg>