<?xml version="1.0" encoding="UTF-8"?>
<svg width="18px" height="18px" viewBox="0 0 18 18" version="1.1" xmlns="http://www.w3.org/2000/svg" xmlns:xlink="http://www.w3.org/1999/xlink">
    <!-- Generator: Sketch 50.2 (55047) - http://www.bohemiancoding.com/sketch -->
    <title>Shape</title>
    <desc>Created with Sketch.</desc>
    <defs></defs>
    <g id="Page-1" stroke="none" stroke-width="1" fill="none" fill-rule="evenodd" opacity="0.5">
        <g id="1440" transform="translate(-1240.000000, -3709.000000)" fill="#FFFFFF" fill-rule="nonzero">
            <g id="footer" transform="translate(55.000000, 3694.000000)">
                <g id="grid-world" transform="translate(1185.000000, 15.000000)">
                    <path d="M17.9784,8.4 C17.6832,3.9072 14.0928,0.3156 9.6,0.0204 L9.6,0 L9,0 L8.4,0 L8.4,0.0204 C3.9072,0.3156 0.3156,3.9072 0.0204,8.4 L0,8.4 L0,9 L0,9.6 L0.0204,9.6 C0.3156,14.0928 3.9072,17.6832 8.4,17.9784 L8.4,18 L9,18 L9.6,18 L9.6,17.9784 C14.0928,17.6832 17.6832,14.0928 17.9784,9.6 L18,9.6 L18,9 L18,8.4 L17.9784,8.4 Z M6,2.4 C5.34973822,3.05150106 4.80987285,3.86841438 4.41675393,4.8 L2.4,4.8 C3.27778609,3.76794926 4.52445774,2.93276956 6,2.4 Z M1.71390255,6 L3.6,6 C3.45623603,6.7584 3.36504247,7.5636 3.3360751,8.4 L1.2,8.4 C1.25686187,7.5552 1.43495753,6.7476 1.71390255,6 Z M1.2,9.6 L3.3360751,9.6 C3.36504247,10.4364 3.45623603,11.2416 3.6,12 L1.71390255,12 C1.43495753,11.2524 1.25686187,10.4448 1.2,9.6 Z M2.4,13.2 L4.41540763,13.2 C4.80852655,14.1315856 5.34839192,14.9484989 6,15.6 C4.52445774,15.0672304 3.27778609,14.2330655 2.4,13.2 Z M8.4,16.8 C7.39297959,16.4628065 6.52604082,15.1091281 6,13.2 L8.4,13.2 L8.4,16.8 Z M8.4,12 L5.11183946,12 C4.94207358,11.2524 4.83491639,10.4448 4.8,9.6 L8.4,9.6 L8.4,12 Z M8.4,8.4 L4.8,8.4 C4.83491639,7.5552 4.94207358,6.7476 5.11183946,6 L8.4,6 L8.4,8.4 Z M8.4,4.8 L6,4.8 C6.52604082,2.89022147 7.39297959,1.53608177 8.4,1.2 L8.4,4.8 Z M15.6,4.8 L13.5859387,4.8 C13.1914734,3.86841438 12.6529544,3.05150106 12,2.4 C13.474196,2.93276956 14.7222139,3.76794926 15.6,4.8 Z M9.6,1.2 C10.6060408,1.53608177 11.4739592,2.89022147 12,4.8 L9.6,4.8 L9.6,1.2 Z M9.6,6 L12.8869565,6 C13.0579264,6.7476 13.1626756,7.5552 13.2,8.4 L9.6,8.4 L9.6,6 Z M9.6,9.6 L13.2,9.6 C13.1650836,10.4448 13.0579264,11.2524 12.8869565,12 L9.6,12 L9.6,9.6 Z M9.6,16.8 L9.6,13.2 L12,13.2 C11.4739592,15.1091281 10.6060408,16.4628065 9.6,16.8 Z M12,15.6 C12.6502618,14.9474841 13.1914734,14.1315856 13.5859387,13.2 L15.6,13.2 C14.7222139,14.2330655 13.474196,15.0672304 12,15.6 Z M16.286941,12 L14.4,12 C14.5438283,11.2416 14.6350626,10.4364 14.6640429,9.6 L16.8,9.6 C16.744186,10.4448 16.5660107,11.2524 16.286941,12 Z M14.6639249,8.4 C14.6349575,7.5636 14.543764,6.7584 14.4,6 L16.2860975,6 C16.5650425,6.7476 16.7431381,7.5552 16.8,8.4 L14.6639249,8.4 Z" id="Shape"></path>
                </g>
            </g>
        </g>
    </g>
</svg>